<mxfile host="app.diagrams.net" modified="2022-04-01T07:17:05.274Z" agent="5.0 (Macintosh; Intel Mac OS X 10_15_7) AppleWebKit/537.36 (KHTML, like Gecko) Chrome/99.0.4844.83 Safari/537.36" etag="GL51NRame5FtopPTnbts" version="17.2.0" type="github">
  <diagram id="7-NCqxPz54c6veT9OWFE" name="第 1 页">
    <mxGraphModel dx="2066" dy="1154" grid="1" gridSize="10" guides="1" tooltips="1" connect="1" arrows="1" fold="1" page="1" pageScale="1" pageWidth="827" pageHeight="1169" math="0" shadow="0">
      <root>
        <mxCell id="0" />
        <mxCell id="1" parent="0" />
        <mxCell id="j6_W3U99VfGVyESWufSH-3" value="" style="edgeStyle=orthogonalEdgeStyle;rounded=0;orthogonalLoop=1;jettySize=auto;html=1;entryX=0.5;entryY=0;entryDx=0;entryDy=0;" edge="1" parent="1" source="j6_W3U99VfGVyESWufSH-1" target="j6_W3U99VfGVyESWufSH-15">
          <mxGeometry relative="1" as="geometry">
            <mxPoint x="420" y="190" as="targetPoint" />
          </mxGeometry>
        </mxCell>
        <mxCell id="j6_W3U99VfGVyESWufSH-1" value="埋点系统同步团长端点位" style="rounded=1;whiteSpace=wrap;html=1;" vertex="1" parent="1">
          <mxGeometry x="350" y="90" width="136" height="60" as="geometry" />
        </mxCell>
        <mxCell id="j6_W3U99VfGVyESWufSH-13" value="" style="edgeStyle=orthogonalEdgeStyle;rounded=0;orthogonalLoop=1;jettySize=auto;html=1;" edge="1" parent="1">
          <mxGeometry relative="1" as="geometry">
            <mxPoint x="180" y="400" as="sourcePoint" />
            <mxPoint x="170" y="480" as="targetPoint" />
          </mxGeometry>
        </mxCell>
        <mxCell id="j6_W3U99VfGVyESWufSH-7" style="edgeStyle=orthogonalEdgeStyle;rounded=0;orthogonalLoop=1;jettySize=auto;html=1;entryX=0.5;entryY=0;entryDx=0;entryDy=0;" edge="1" parent="1">
          <mxGeometry relative="1" as="geometry">
            <mxPoint x="243" y="280" as="sourcePoint" />
            <mxPoint x="180" y="340" as="targetPoint" />
          </mxGeometry>
        </mxCell>
        <mxCell id="j6_W3U99VfGVyESWufSH-18" value="" style="edgeStyle=orthogonalEdgeStyle;rounded=0;orthogonalLoop=1;jettySize=auto;html=1;" edge="1" parent="1" source="j6_W3U99VfGVyESWufSH-15" target="j6_W3U99VfGVyESWufSH-17">
          <mxGeometry relative="1" as="geometry" />
        </mxCell>
        <mxCell id="j6_W3U99VfGVyESWufSH-15" value="关联流量模型&lt;br&gt;&lt;span style=&quot;color: rgb(23 , 43 , 77) ; font-size: 14px ; text-align: left ; background-color: rgb(255 , 255 , 255)&quot;&gt;adm_jxpp_d14_traffic_plat_uuid_di&amp;nbsp;&lt;br&gt;&lt;/span&gt;&lt;span style=&quot;color: rgb(23 , 43 , 77) ; font-family: , &amp;#34;system-ui&amp;#34; , &amp;#34;segoe ui&amp;#34; , &amp;#34;roboto&amp;#34; , &amp;#34;oxygen&amp;#34; , &amp;#34;ubuntu&amp;#34; , &amp;#34;fira sans&amp;#34; , &amp;#34;droid sans&amp;#34; , &amp;#34;helvetica neue&amp;#34; , sans-serif ; font-size: 14px ; text-align: left ; background-color: rgb(255 , 255 , 255)&quot;&gt;adm_jxpp_d14_traffic_plat_click_di&lt;/span&gt;" style="rounded=1;whiteSpace=wrap;html=1;" vertex="1" parent="1">
          <mxGeometry x="348" y="200" width="140" height="60" as="geometry" />
        </mxCell>
        <mxCell id="j6_W3U99VfGVyESWufSH-20" value="" style="edgeStyle=orthogonalEdgeStyle;rounded=0;orthogonalLoop=1;jettySize=auto;html=1;" edge="1" parent="1" source="j6_W3U99VfGVyESWufSH-17" target="j6_W3U99VfGVyESWufSH-19">
          <mxGeometry relative="1" as="geometry" />
        </mxCell>
        <mxCell id="j6_W3U99VfGVyESWufSH-17" value="分日、周、月、战区维度，战区城市群网格维度（待讨论）" style="rounded=1;whiteSpace=wrap;html=1;" vertex="1" parent="1">
          <mxGeometry x="358" y="300" width="120" height="60" as="geometry" />
        </mxCell>
        <mxCell id="j6_W3U99VfGVyESWufSH-22" value="" style="edgeStyle=orthogonalEdgeStyle;rounded=0;orthogonalLoop=1;jettySize=auto;html=1;" edge="1" parent="1" source="j6_W3U99VfGVyESWufSH-19" target="j6_W3U99VfGVyESWufSH-21">
          <mxGeometry relative="1" as="geometry" />
        </mxCell>
        <mxCell id="j6_W3U99VfGVyESWufSH-19" value="&lt;span&gt;计算流量指标&lt;/span&gt;" style="rounded=1;whiteSpace=wrap;html=1;" vertex="1" parent="1">
          <mxGeometry x="358" y="400" width="120" height="60" as="geometry" />
        </mxCell>
        <mxCell id="j6_W3U99VfGVyESWufSH-24" value="" style="edgeStyle=orthogonalEdgeStyle;rounded=0;orthogonalLoop=1;jettySize=auto;html=1;" edge="1" parent="1" source="j6_W3U99VfGVyESWufSH-21" target="j6_W3U99VfGVyESWufSH-23">
          <mxGeometry relative="1" as="geometry" />
        </mxCell>
        <mxCell id="j6_W3U99VfGVyESWufSH-21" value="统计种子用户" style="rounded=1;whiteSpace=wrap;html=1;" vertex="1" parent="1">
          <mxGeometry x="358" y="490" width="120" height="60" as="geometry" />
        </mxCell>
        <mxCell id="j6_W3U99VfGVyESWufSH-27" value="" style="edgeStyle=orthogonalEdgeStyle;rounded=0;orthogonalLoop=1;jettySize=auto;html=1;" edge="1" parent="1" source="j6_W3U99VfGVyESWufSH-23" target="j6_W3U99VfGVyESWufSH-26">
          <mxGeometry relative="1" as="geometry" />
        </mxCell>
        <mxCell id="j6_W3U99VfGVyESWufSH-23" value="统计常用点位" style="rounded=1;whiteSpace=wrap;html=1;" vertex="1" parent="1">
          <mxGeometry x="358" y="590" width="120" height="60" as="geometry" />
        </mxCell>
        <mxCell id="j6_W3U99VfGVyESWufSH-26" value="页面展示" style="rounded=1;whiteSpace=wrap;html=1;" vertex="1" parent="1">
          <mxGeometry x="358" y="700" width="120" height="60" as="geometry" />
        </mxCell>
        <mxCell id="j6_W3U99VfGVyESWufSH-28" value="" style="edgeStyle=orthogonalEdgeStyle;rounded=0;orthogonalLoop=1;jettySize=auto;html=1;entryX=0.5;entryY=0;entryDx=0;entryDy=0;" edge="1" parent="1" source="j6_W3U99VfGVyESWufSH-29" target="j6_W3U99VfGVyESWufSH-31">
          <mxGeometry relative="1" as="geometry">
            <mxPoint x="672" y="190" as="targetPoint" />
          </mxGeometry>
        </mxCell>
        <mxCell id="j6_W3U99VfGVyESWufSH-29" value="埋点系统同步团长端点位" style="rounded=1;whiteSpace=wrap;html=1;" vertex="1" parent="1">
          <mxGeometry x="602" y="90" width="136" height="60" as="geometry" />
        </mxCell>
        <mxCell id="j6_W3U99VfGVyESWufSH-30" value="" style="edgeStyle=orthogonalEdgeStyle;rounded=0;orthogonalLoop=1;jettySize=auto;html=1;" edge="1" parent="1" source="j6_W3U99VfGVyESWufSH-31" target="j6_W3U99VfGVyESWufSH-33">
          <mxGeometry relative="1" as="geometry" />
        </mxCell>
        <mxCell id="j6_W3U99VfGVyESWufSH-31" value="关联流量模型&lt;br&gt;&lt;span style=&quot;color: rgb(23 , 43 , 77) ; font-size: 14px ; text-align: left ; background-color: rgb(255 , 255 , 255)&quot;&gt;adm_jxpp_d14_traffic_plat_uuid_di&amp;nbsp;&lt;br&gt;&lt;/span&gt;&lt;span style=&quot;color: rgb(23 , 43 , 77) ; font-family: , &amp;#34;system-ui&amp;#34; , &amp;#34;segoe ui&amp;#34; , &amp;#34;roboto&amp;#34; , &amp;#34;oxygen&amp;#34; , &amp;#34;ubuntu&amp;#34; , &amp;#34;fira sans&amp;#34; , &amp;#34;droid sans&amp;#34; , &amp;#34;helvetica neue&amp;#34; , sans-serif ; font-size: 14px ; text-align: left ; background-color: rgb(255 , 255 , 255)&quot;&gt;adm_jxpp_d14_traffic_plat_click_di&lt;/span&gt;" style="rounded=1;whiteSpace=wrap;html=1;" vertex="1" parent="1">
          <mxGeometry x="600" y="200" width="140" height="60" as="geometry" />
        </mxCell>
        <mxCell id="j6_W3U99VfGVyESWufSH-32" value="" style="edgeStyle=orthogonalEdgeStyle;rounded=0;orthogonalLoop=1;jettySize=auto;html=1;" edge="1" parent="1" source="j6_W3U99VfGVyESWufSH-33" target="j6_W3U99VfGVyESWufSH-35">
          <mxGeometry relative="1" as="geometry" />
        </mxCell>
        <mxCell id="j6_W3U99VfGVyESWufSH-33" value="分日、三级地址" style="rounded=1;whiteSpace=wrap;html=1;" vertex="1" parent="1">
          <mxGeometry x="610" y="300" width="120" height="60" as="geometry" />
        </mxCell>
        <mxCell id="j6_W3U99VfGVyESWufSH-34" value="" style="edgeStyle=orthogonalEdgeStyle;rounded=0;orthogonalLoop=1;jettySize=auto;html=1;" edge="1" parent="1" source="j6_W3U99VfGVyESWufSH-35">
          <mxGeometry relative="1" as="geometry">
            <mxPoint x="670" y="490" as="targetPoint" />
          </mxGeometry>
        </mxCell>
        <mxCell id="j6_W3U99VfGVyESWufSH-35" value="&lt;span&gt;计算流量指标&lt;/span&gt;" style="rounded=1;whiteSpace=wrap;html=1;" vertex="1" parent="1">
          <mxGeometry x="610" y="400" width="120" height="60" as="geometry" />
        </mxCell>
        <mxCell id="j6_W3U99VfGVyESWufSH-40" value="页面展示" style="rounded=1;whiteSpace=wrap;html=1;" vertex="1" parent="1">
          <mxGeometry x="610" y="490" width="120" height="60" as="geometry" />
        </mxCell>
      </root>
    </mxGraphModel>
  </diagram>
</mxfile>
